<svg width="80" height="80" viewBox="0 0 80 80" fill="none" xmlns="http://www.w3.org/2000/svg">
<path d="M50 73.3334C50.884 73.3334 51.7319 72.9822 52.357 72.357C52.9821 71.7319 53.3333 70.8841 53.3333 70V60H66.6666C68.4348 60 70.1304 59.2976 71.3807 58.0474C72.6309 56.7972 73.3333 55.1015 73.3333 53.3334V13.3334C73.3333 11.5652 72.6309 9.86955 71.3807 8.61931C70.1304 7.36907 68.4348 6.66669 66.6666 6.66669H13.3333C11.5652 6.66669 9.86951 7.36907 8.61927 8.61931C7.36903 9.86955 6.66665 11.5652 6.66665 13.3334V53.3334C6.66665 55.1015 7.36903 56.7972 8.61927 58.0474C9.86951 59.2976 11.5652 60 13.3333 60H33.6666L46 72.3667C46.6666 73 47.5 73.3334 48.3333 73.3334H50ZM23.3333 36.6667V30H30V36.6667H23.3333ZM36.6666 36.6667V30H43.3333V36.6667H36.6666ZM50 36.6667V30H56.6666V36.6667H50Z" fill="#81C485"/>
</svg>
