<svg width="80" height="80" viewBox="0 0 80 80" fill="none" xmlns="http://www.w3.org/2000/svg">
<g clip-path="url(#clip0_59_93)">
<path d="M19.2833 11.38C20.7186 10.5388 22.2099 9.79704 23.7467 9.16C26.9698 7.79763 30.3828 6.93764 33.8667 6.61L37.6233 10.8567L35.8733 15.2533C32.4807 15.9092 29.2315 17.162 26.2767 18.9533L25.6267 19.3533L25.0333 13.5633L19.2833 11.3633V11.38ZM17.65 12.4133L23.6133 14.7133L24.24 20.4133C21.0153 22.7809 18.4234 25.9063 16.6933 29.5133C16.5261 29.8406 16.3715 30.1742 16.23 30.5133L12.03 25.4167L5.18334 26.8633C6.88045 23.1973 9.20801 19.8578 12.06 16.9967C13.7767 15.2567 15.6267 13.7333 17.6167 12.41L17.65 12.4133ZM56.9233 52.5867C57.5733 51.5067 58.1033 50.4133 58.5233 49.2867L64.9833 57.12L75.8333 54.7833C75.2064 56.5034 74.4694 58.1814 73.6267 59.8067C71.4226 64.0668 68.4269 67.8679 64.8 71.0067C61.1388 74.1891 56.8593 76.5802 52.23 78.03C52.14 78.06 52.0433 78.0833 51.9533 78.1167L43.9167 71.32L46.0133 62.07L46.1833 62C50.78 60 54.3733 56.9033 56.93 52.55V52.5867H56.9233ZM70.51 16.0167C71.1733 16.9267 71.79 17.8833 72.3867 18.8633C74.8435 22.988 76.5784 27.5017 77.5167 32.21C78.42 36.91 78.5667 41.64 77.9167 46.3833C77.5782 48.6451 77.061 50.8766 76.37 53.0567L65.52 55.3867L59.02 47.53C59.79 44.5768 59.8585 41.4844 59.22 38.5C58.5321 34.9398 56.852 31.6466 54.3733 29L66.07 27.6L70.4233 16.0133H70.51V16.0167ZM4.46001 28.6133L11.46 27.1333L15.58 32.1633C14.2767 35.7767 13.98 39.53 14.63 43.43C14.78 44.5433 15.0267 45.6167 15.33 46.66L7.93001 44.9767L2.63001 51.2467C1.99225 48.4541 1.67575 45.5978 1.68667 42.7333C1.69667 37.8967 2.58667 33.2333 4.37667 28.7367L4.43001 28.6067L4.46001 28.6133ZM15.9333 48.3933C17.0132 51.2324 18.6051 53.8492 20.63 56.1133C22.18 57.91 23.93 59.3633 25.84 60.51L18.5067 64.7133L18.9067 74.26C16.4799 72.7477 14.2419 70.9517 12.24 68.91C8.87274 65.4646 6.22167 61.386 4.44001 56.91C3.94334 55.66 3.54001 54.41 3.19001 53.16L8.64001 46.7633L16.04 48.46L15.9333 48.3933ZM27.44 61.3833C29.0167 62.17 30.7033 62.77 32.5 63.1833C36.3887 64.1222 40.462 63.9595 44.2633 62.7133L42.18 71.9033L50.1367 78.6367C46.1585 79.6772 42.0491 80.1275 37.94 79.9733C31.8296 79.7913 25.8513 78.1513 20.5033 75.19L20.1067 65.5833L27.44 61.3833ZM69.3833 14.5467L65.0067 26.1667L52.96 27.6167C52.6165 27.3088 52.2523 27.0248 51.87 26.7667C48.0026 23.7978 43.377 21.9783 38.5233 21.5167C37.37 21.42 36.2733 21.42 35.2233 21.42L39.4233 10.6667L30.3333 0.31667C33.09 0.0166698 35.79 -0.0299968 38.53 0.0166699C40.1633 0.0666699 41.78 0.18667 43.3933 0.393337C45.66 0.690003 47.8967 1.19 50.11 1.79334C54.7933 3.12667 59.06 5.24 62.9167 8.22667C65.3203 10.0636 67.4917 12.1858 69.3833 14.5467Z" fill="#81C485"/>
</g>
<defs>
<clipPath id="clip0_59_93">
<rect width="80" height="80" fill="white"/>
</clipPath>
</defs>
</svg>
