<svg width="60" height="60" viewBox="0 0 60 60" fill="none" xmlns="http://www.w3.org/2000/svg">
<path d="M43.3333 5C43.3333 3.67392 43.8601 2.40215 44.7978 1.46447C45.7355 0.526784 47.0072 0 48.3333 0H55C56.3261 0 57.5978 0.526784 58.5355 1.46447C59.4732 2.40215 60 3.67392 60 5V55C60 56.3261 59.4732 57.5978 58.5355 58.5355C57.5978 59.4732 56.3261 60 55 60H48.3333C47.0072 60 45.7355 59.4732 44.7978 58.5355C43.8601 57.5978 43.3333 56.3261 43.3333 55V5ZM21.6667 25C21.6667 23.6739 22.1934 22.4021 23.1311 21.4645C24.0688 20.5268 25.3406 20 26.6667 20H33.3333C34.6594 20 35.9312 20.5268 36.8689 21.4645C37.8065 22.4021 38.3333 23.6739 38.3333 25V55C38.3333 56.3261 37.8065 57.5978 36.8689 58.5355C35.9312 59.4732 34.6594 60 33.3333 60H26.6667C25.3406 60 24.0688 59.4732 23.1311 58.5355C22.1934 57.5978 21.6667 56.3261 21.6667 55V25ZM5 40C3.67392 40 2.40215 40.5268 1.46447 41.4645C0.526784 42.4021 0 43.6739 0 45V55C0 56.3261 0.526784 57.5978 1.46447 58.5355C2.40215 59.4732 3.67392 60 5 60H11.6667C12.9927 60 14.2645 59.4732 15.2022 58.5355C16.1399 57.5978 16.6667 56.3261 16.6667 55V45C16.6667 43.6739 16.1399 42.4021 15.2022 41.4645C14.2645 40.5268 12.9927 40 11.6667 40H5Z" fill="#81C485"/>
</svg>
