<svg width="1052" height="894" viewBox="0 0 1052 894" fill="none" xmlns="http://www.w3.org/2000/svg">
<path opacity="0.11" d="M1052 241.392V817.797C1037.84 819.906 1023.37 821.005 1008.63 821.005C847.605 821.005 717.076 690.531 717.076 529.587C717.076 368.659 847.605 238.185 1008.63 238.185C1023.37 238.185 1037.84 239.284 1052 241.392Z" fill="#00B8F7"/>
<path opacity="0.11" d="M274.919 215.853C274.919 325.346 187.399 414.422 78.4718 417.021L22.151 319.525C-7.38365 268.402 -7.38365 205.4 22.151 154.276L101.707 16.571C199.582 30.2464 274.919 114.259 274.919 215.853Z" fill="#00B8F7"/>
<path opacity="0.11" d="M494.69 711.244C494.69 789.14 441.489 854.607 369.406 873.331C343.555 859.032 321.568 837.828 306.281 811.368L191.559 612.784C222.015 570.955 271.383 543.768 327.109 543.768C419.665 543.768 494.69 618.738 494.69 711.244Z" fill="#00B8F7"/>
<path d="M1052 0V894H449.467C420.972 894 393.503 886.665 369.406 873.331C343.555 859.032 321.568 837.828 306.281 811.368L191.559 612.784L78.4718 417.021L22.151 319.525C-7.38365 268.402 -7.38365 205.4 22.151 154.276L101.707 16.571L111.275 0H1052Z" fill="url(#paint0_linear_416_4835)"/>
<defs>
<linearGradient id="paint0_linear_416_4835" x1="190.264" y1="-78.9469" x2="1107.38" y2="838.654" gradientUnits="userSpaceOnUse">
<stop offset="0.198" stop-color="#00B8F7"/>
<stop offset="0.944" stop-color="#81C485"/>
</linearGradient>
</defs>
</svg>
